# Blender v2.76 (sub 0) OBJ File: 'twintails_cyan.blend'
# www.blender.org
mtllib twintails_cyan.mtl
o Miku_TwinTail_TwinTailModel
v 0.193580 0.483159 0.180219
v 0.228583 0.483192 0.057753
v 0.267245 0.365723 0.067884
v 0.233236 0.365274 0.190460
v 0.257751 0.506688 0.200879
v 0.297475 0.506694 0.075310
v 0.357986 0.371132 0.092045
v 0.312818 0.372039 0.221729
v 0.461859 0.453819 0.267010
v 0.502139 0.439335 0.158177
v 0.414718 0.363097 0.112625
v 0.367722 0.363984 0.240462
v 0.454221 0.298405 0.311702
v 0.499332 0.298300 0.208739
v 0.411418 0.265879 0.169465
v 0.366163 0.265611 0.272619
v 0.539183 -0.042413 0.382638
v 0.594076 -0.014012 0.233898
v 0.478372 -0.117725 0.200072
v 0.423479 -0.146127 0.348811
v 0.714104 -0.392515 0.473056
v 0.783080 -0.350200 0.298765
v 0.649812 -0.469142 0.252565
v 0.580837 -0.511457 0.426855
v 0.732626 -0.715213 0.450808
v 0.789922 -0.683285 0.332124
v 0.697728 -0.749070 0.286089
v 0.640432 -0.780998 0.404772
v 0.714977 -0.884827 0.454236
v 0.750376 -0.874090 0.377002
v 0.688624 -0.914002 0.350243
v 0.653702 -0.924474 0.426985
v -0.193580 0.483159 0.180219
v -0.228583 0.483192 0.057753
v -0.267245 0.365723 0.067884
v -0.233236 0.365274 0.190460
v -0.257751 0.506688 0.200879
v -0.297475 0.506694 0.075310
v -0.357986 0.371132 0.092045
v -0.312818 0.372039 0.221729
v -0.461859 0.453819 0.267010
v -0.502139 0.439335 0.158177
v -0.414718 0.363097 0.112625
v -0.367722 0.363984 0.240462
v -0.454221 0.298405 0.311702
v -0.499332 0.298300 0.208739
v -0.411418 0.265879 0.169465
v -0.366163 0.265611 0.272619
v -0.539183 -0.042413 0.382638
v -0.594076 -0.014012 0.233898
v -0.478372 -0.117725 0.200072
v -0.423479 -0.146127 0.348811
v -0.714104 -0.392515 0.473056
v -0.783080 -0.350200 0.298765
v -0.649812 -0.469142 0.252565
v -0.580837 -0.511457 0.426855
v -0.732626 -0.715213 0.450808
v -0.789922 -0.683285 0.332124
v -0.697728 -0.749070 0.286089
v -0.640432 -0.780998 0.404772
v -0.714977 -0.884827 0.454236
v -0.750376 -0.874090 0.377002
v -0.688624 -0.914002 0.350243
v -0.653702 -0.924474 0.426985
vt 0.187500 0.187500
vt 0.125000 0.187500
vt 0.125000 0.156250
vt 0.187500 0.156250
vt 0.062500 0.218750
vt 0.062500 0.156250
vt -0.000000 0.218750
vt 0.000000 0.156250
vt 0.250000 0.218750
vt 0.250000 0.156250
vt 0.125000 0.093750
vt 0.062500 0.093750
vt 0.250000 0.250000
vt 0.187500 0.281250
vt 0.250000 0.343750
vt 0.187500 0.343750
vt 0.062500 0.250000
vt -0.000000 0.250000
vt 0.125000 0.281250
vt 0.250000 0.531250
vt 0.187500 0.531250
vt 0.062500 0.343750
vt -0.000000 0.343750
vt 0.125000 0.343750
vt 0.250000 0.750000
vt 0.187500 0.750000
vt 0.062500 0.531250
vt 0.000000 0.531250
vt 0.125000 0.531250
vt 0.250000 0.875000
vt 0.187500 0.875000
vt 0.062500 0.750000
vt 0.000000 0.750000
vt 0.125000 0.750000
vt 0.250000 0.937500
vt 0.187500 0.937500
vt 0.062500 0.875000
vt 0.000000 0.875000
vt 0.125000 0.875000
vt 0.062500 1.000000
vt 0.062500 0.937500
vt 0.125000 0.937500
vt 0.125000 1.000000
vt 0.000000 0.937500
vn -0.308000 0.946800 -0.092700
vn 0.253400 -0.003400 -0.967400
vn 0.064200 -0.997700 0.022000
vn -0.337700 -0.010800 0.941200
vn -0.910100 -0.325100 -0.257000
vn -0.305100 0.028900 0.951900
vn -0.481900 0.269900 0.833600
vn -0.129000 -0.990900 -0.039300
vn 0.385800 0.076100 -0.919400
vn 0.270900 0.962000 0.033000
vn -0.395900 0.103500 0.912500
vn -0.919100 -0.144000 -0.366700
vn 0.574400 -0.348600 -0.740700
vn 0.926100 0.085500 0.367500
vn -0.351300 0.056900 0.934500
vn -0.904200 -0.192500 -0.381400
vn 0.336300 0.002700 -0.941800
vn 0.875500 0.297000 0.381200
vn -0.297600 -0.110200 0.948300
vn -0.801400 -0.441200 -0.403900
vn 0.307200 -0.001400 -0.951700
vn 0.767500 0.498300 0.403400
vn -0.473000 0.078500 0.877600
vn -0.885400 -0.182100 -0.427700
vn 0.420500 -0.061200 -0.905200
vn 0.913600 0.042200 0.404400
vn 0.504300 -0.856200 0.112400
vn -0.884000 -0.137100 -0.446900
vn 0.572300 -0.310900 -0.758900
vn 0.907700 -0.089100 0.410100
vn 0.308000 0.946800 -0.092700
vn -0.253400 -0.003400 -0.967400
vn -0.064200 -0.997700 0.022000
vn 0.337700 -0.010800 0.941200
vn 0.910100 -0.325100 -0.257000
vn 0.305100 0.028900 0.951900
vn 0.481900 0.269900 0.833600
vn 0.129000 -0.990900 -0.039300
vn -0.385800 0.076100 -0.919400
vn -0.270900 0.962000 0.033000
vn 0.395900 0.103500 0.912500
vn 0.919100 -0.144000 -0.366700
vn -0.574400 -0.348600 -0.740700
vn -0.926100 0.085500 0.367500
vn 0.351300 0.056900 0.934500
vn 0.904200 -0.192500 -0.381400
vn -0.336300 0.002700 -0.941800
vn -0.875500 0.297000 0.381200
vn 0.297600 -0.110200 0.948300
vn 0.801400 -0.441200 -0.403900
vn -0.307200 -0.001400 -0.951700
vn -0.767500 0.498300 0.403400
vn 0.473000 0.078500 0.877600
vn 0.885400 -0.182100 -0.427700
vn -0.420500 -0.061200 -0.905200
vn -0.913600 0.042200 0.404400
vn -0.504300 -0.856200 0.112400
vn 0.884000 -0.137100 -0.446900
vn -0.572300 -0.310900 -0.758900
vn -0.907700 -0.089100 0.410100
usemtl Cyan
f 5/1/1 6/2/1 2/3/1 1/4/1
f 6/2/2 7/5/2 3/6/2 2/3/2
f 7/5/3 8/7/3 4/8/3 3/6/3
f 8/9/4 5/1/4 1/4/4 4/10/4
f 1/11/5 2/3/5 3/6/5 4/12/5
f 5/1/6 8/9/6 12/13/6 9/14/6
f 9/14/7 12/13/7 16/15/7 13/16/7
f 8/7/8 7/5/8 11/17/8 12/18/8
f 7/5/9 6/2/9 10/19/9 11/17/9
f 6/2/10 5/1/10 9/14/10 10/19/10
f 13/16/11 16/15/11 20/20/11 17/21/11
f 12/18/12 11/17/12 15/22/12 16/23/12
f 11/17/13 10/19/13 14/24/13 15/22/13
f 10/19/14 9/14/14 13/16/14 14/24/14
f 17/21/15 20/20/15 24/25/15 21/26/15
f 16/23/16 15/22/16 19/27/16 20/28/16
f 15/22/17 14/24/17 18/29/17 19/27/17
f 14/24/18 13/16/18 17/21/18 18/29/18
f 21/26/19 24/25/19 28/30/19 25/31/19
f 20/28/20 19/27/20 23/32/20 24/33/20
f 19/27/21 18/29/21 22/34/21 23/32/21
f 18/29/22 17/21/22 21/26/22 22/34/22
f 25/31/23 28/30/23 32/35/23 29/36/23
f 24/33/24 23/32/24 27/37/24 28/38/24
f 23/32/25 22/34/25 26/39/25 27/37/25
f 22/34/26 21/26/26 25/31/26 26/39/26
f 32/40/27 31/41/27 30/42/27 29/43/27
f 28/38/28 27/37/28 31/41/28 32/44/28
f 27/37/29 26/39/29 30/42/29 31/41/29
f 26/39/30 25/31/30 29/36/30 30/42/30
f 37/1/31 33/4/31 34/3/31 38/2/31
f 38/2/32 34/3/32 35/6/32 39/5/32
f 39/5/33 35/6/33 36/8/33 40/7/33
f 40/9/34 36/10/34 33/4/34 37/1/34
f 33/11/35 36/12/35 35/6/35 34/3/35
f 37/1/36 41/14/36 44/13/36 40/9/36
f 41/14/37 45/16/37 48/15/37 44/13/37
f 40/7/38 44/18/38 43/17/38 39/5/38
f 39/5/39 43/17/39 42/19/39 38/2/39
f 38/2/40 42/19/40 41/14/40 37/1/40
f 45/16/41 49/21/41 52/20/41 48/15/41
f 44/18/42 48/23/42 47/22/42 43/17/42
f 43/17/43 47/22/43 46/24/43 42/19/43
f 42/19/44 46/24/44 45/16/44 41/14/44
f 49/21/45 53/26/45 56/25/45 52/20/45
f 48/23/46 52/28/46 51/27/46 47/22/46
f 47/22/47 51/27/47 50/29/47 46/24/47
f 46/24/48 50/29/48 49/21/48 45/16/48
f 53/26/49 57/31/49 60/30/49 56/25/49
f 52/28/50 56/33/50 55/32/50 51/27/50
f 51/27/51 55/32/51 54/34/51 50/29/51
f 50/29/52 54/34/52 53/26/52 49/21/52
f 57/31/53 61/36/53 64/35/53 60/30/53
f 56/33/54 60/38/54 59/37/54 55/32/54
f 55/32/55 59/37/55 58/39/55 54/34/55
f 54/34/56 58/39/56 57/31/56 53/26/56
f 64/40/57 61/43/57 62/42/57 63/41/57
f 60/38/58 64/44/58 63/41/58 59/37/58
f 59/37/59 63/41/59 62/42/59 58/39/59
f 58/39/60 62/42/60 61/36/60 57/31/60
o Miku_Earmuffs_2_Earmuffs
v 0.243068 0.187093 0.179379
v 0.305568 0.187093 0.179379
v 0.243068 0.309112 0.152242
v 0.305568 0.309112 0.152242
v 0.243068 0.146386 -0.003648
v 0.305568 0.146386 -0.003649
v 0.243068 0.268405 -0.030786
v 0.305568 0.268405 -0.030786
v -0.243068 0.187093 0.179379
v -0.305568 0.187093 0.179379
v -0.243068 0.309112 0.152242
v -0.305568 0.309112 0.152242
v -0.243068 0.146386 -0.003648
v -0.305568 0.146386 -0.003649
v -0.243068 0.268405 -0.030786
v -0.305568 0.268405 -0.030786
vt 0.406250 0.500000
vt 0.406250 0.625000
vt 0.343750 0.625000
vt 0.343750 0.500000
vt 0.593750 0.625000
vt 0.593750 0.687500
vt 0.406250 0.687500
vt 0.593750 0.500000
vt 0.656250 0.500000
vt 0.656250 0.625000
vt 0.406250 0.437500
vt 0.593750 0.437500
vt 0.843750 0.500000
vt 0.843750 0.625000
vn 0.000000 0.217100 0.976100
vn -0.000000 0.976100 -0.217100
vn -0.000000 -0.217100 -0.976100
vn 0.000000 -0.976100 0.217100
vn -1.000000 0.000000 0.000000
vn 1.000000 0.000000 -0.000000
usemtl Cyan
f 66/45/61 68/46/61 67/47/61 65/48/61
f 68/46/62 72/49/62 71/50/62 67/51/62
f 72/49/63 70/52/63 69/53/63 71/54/63
f 70/52/64 66/45/64 65/55/64 69/56/64
f 65/57/65 67/58/65 71/54/65 69/53/65
f 70/52/66 72/49/66 68/46/66 66/45/66
f 74/45/61 73/48/61 75/47/61 76/46/61
f 76/46/62 75/51/62 79/50/62 80/49/62
f 80/49/63 79/54/63 77/53/63 78/52/63
f 78/52/64 77/56/64 73/55/64 74/45/64
f 73/57/66 77/53/66 79/54/66 75/58/66
f 78/52/65 74/45/65 76/46/65 80/49/65
o Miku_Ribbon_2_ribbon
v 0.230914 0.432053 0.313856
v 0.354662 0.442947 0.327741
v 0.235315 0.608157 0.136464
v 0.359063 0.619051 0.150349
v 0.265937 0.255949 0.139900
v 0.389685 0.266843 0.153785
v 0.270338 0.432053 -0.037493
v 0.394086 0.442947 -0.023607
v 0.356239 0.442947 0.313687
v 0.360288 0.604963 0.150487
v 0.236540 0.594068 0.136601
v 0.232491 0.432053 0.299802
v 0.392509 0.442947 -0.009553
v 0.268761 0.432053 -0.023439
v 0.388460 0.280932 0.153648
v 0.264712 0.270037 0.139762
v -0.230914 0.432053 0.313856
v -0.354662 0.442947 0.327741
v -0.235315 0.608157 0.136464
v -0.359063 0.619051 0.150349
v -0.265937 0.255949 0.139900
v -0.389685 0.266843 0.153785
v -0.270338 0.432053 -0.037493
v -0.394086 0.442947 -0.023607
v -0.356239 0.442947 0.313687
v -0.360288 0.604963 0.150487
v -0.236540 0.594068 0.136601
v -0.232491 0.432053 0.299802
v -0.392509 0.442947 -0.009553
v -0.268761 0.432053 -0.023439
v -0.388460 0.280932 0.153648
v -0.264712 0.270037 0.139762
vt 0.437500 0.875000
vt 0.250000 0.875000
vt 0.250000 0.781250
vt 0.437500 0.781250
vt 1.000000 0.875000
vt 0.812500 0.875000
vt 0.812500 0.781250
vt 1.000000 0.781250
vt 0.625000 0.875000
vt 0.625000 0.781250
vt 0.437500 0.906250
vt 0.250000 0.906250
vt 0.250000 0.750000
vt 0.437500 0.750000
vt 1.000000 0.906250
vt 0.812500 0.906250
vt 0.812500 0.750000
vt 1.000000 0.750000
vt 0.625000 0.906250
vt 0.625000 0.750000
vt 0.968750 0.875000
vt 0.781250 0.875000
vt 0.781250 0.781250
vt 0.968750 0.781250
vn -0.140100 0.704400 0.695800
vn 0.017600 0.704400 -0.709600
vn 0.140100 -0.704400 -0.695800
vn -0.017600 -0.704400 0.709600
vn 0.990000 0.087200 0.111100
vn -0.990000 -0.087200 -0.111100
vn 0.140100 0.704400 0.695800
vn -0.017600 0.704400 -0.709600
vn -0.140100 -0.704400 -0.695800
vn 0.017600 -0.704400 0.709600
vn -0.990000 0.087200 0.111100
vn 0.990000 -0.087200 -0.111100
usemtl Cyan
f 82/59/67 84/60/67 83/61/67 81/62/67
f 84/63/68 88/64/68 87/65/68 83/66/68
f 88/64/69 86/67/69 85/68/69 87/65/69
f 86/67/70 82/59/70 81/62/70 85/68/70
f 89/69/71 90/70/71 84/60/71 82/59/71
f 91/71/72 92/72/72 81/62/72 83/61/72
f 90/73/71 93/74/71 88/64/71 84/63/71
f 94/75/72 91/76/72 83/66/72 87/65/72
f 93/74/71 95/77/71 86/67/71 88/64/71
f 96/78/72 94/75/72 87/65/72 85/68/72
f 95/77/71 89/69/71 82/59/71 86/67/71
f 92/72/72 96/78/72 85/68/72 81/62/72
f 96/67/68 92/59/68 89/62/68 95/68/68
f 91/79/70 94/80/70 93/81/70 90/82/70
f 92/59/69 91/60/69 90/61/69 89/62/69
f 94/80/67 96/67/67 95/68/67 93/81/67
f 98/59/73 97/62/73 99/61/73 100/60/73
f 100/63/74 99/66/74 103/65/74 104/64/74
f 104/64/75 103/65/75 101/68/75 102/67/75
f 102/67/76 101/68/76 97/62/76 98/59/76
f 105/69/77 98/59/77 100/60/77 106/70/77
f 107/71/78 99/61/78 97/62/78 108/72/78
f 106/73/77 100/63/77 104/64/77 109/74/77
f 110/75/78 103/65/78 99/66/78 107/76/78
f 109/74/77 104/64/77 102/67/77 111/77/77
f 112/78/78 101/68/78 103/65/78 110/75/78
f 111/77/77 102/67/77 98/59/77 105/69/77
f 108/72/78 97/62/78 101/68/78 112/78/78
f 112/67/74 111/68/74 105/62/74 108/59/74
f 107/79/76 106/82/76 109/81/76 110/80/76
f 108/59/75 105/62/75 106/61/75 107/60/75
f 110/80/73 109/81/73 111/68/73 112/67/73
