# Blender v2.74 (sub 0) OBJ File: 'twintails_red.blend'
# www.blender.org

mtllib twintails.mtl
o Ribbon_RibbonMesh
v 0.428523 -0.474447 0.167446
v 0.285423 -0.516953 0.080439
v 0.234664 -0.504789 0.241365
v 0.331593 -0.489618 0.204406
v 0.446875 -0.534804 0.178724
v 0.363566 -0.684356 0.176255
v 0.326861 -0.563642 0.153700
v 0.405004 -0.731045 0.249515
v 0.253017 -0.565146 0.252642
v 0.368299 -0.610331 0.226960
v 0.469960 -0.521136 0.240707
v 0.276102 -0.551478 0.314625
v 0.432821 -0.643353 0.362204
v -0.428523 -0.474447 0.167446
v -0.285423 -0.516953 0.080439
v -0.234664 -0.504789 0.241365
v -0.331593 -0.489618 0.204406
v -0.446875 -0.534804 0.178724
v -0.363566 -0.684356 0.176255
v -0.326861 -0.563642 0.153700
v -0.405004 -0.731045 0.249515
v -0.253017 -0.565146 0.252642
v -0.368299 -0.610331 0.226960
v -0.469960 -0.521136 0.240707
v -0.276102 -0.551478 0.314625
v -0.432821 -0.643353 0.362204
vt 0.875000 0.062500
vt 0.875000 0.156250
vt 0.734375 0.062500
vt 0.375000 0.375000
vt 0.468750 0.375907
vt 0.468750 0.437500
vt 0.906250 0.625000
vt 0.781250 0.750000
vt 0.781250 0.625000
vt 0.875000 0.265625
vt 0.734375 0.265625
vt 0.750000 0.437500
vt 0.750000 0.281250
vt 0.937500 0.281250
vt 0.312500 0.375000
vt 0.375000 0.437500
vt 0.968750 0.468906
vt 0.968750 0.625156
vt 0.794215 0.493509
vt 0.487536 0.556356
vt 0.524794 0.450021
vt 0.562408 0.499936
vt 0.593750 0.265625
vt 0.593750 0.156250
vt 0.449964 0.556356
vt 0.375000 0.656186
vt 0.375092 0.499936
vt 0.562500 0.281250
vt 0.593750 0.062500
vt 0.968750 0.781094
vt 0.869293 0.856321
vt 0.794066 0.756491
vt 0.562500 0.375000
vt 0.625000 0.375000
vt 0.562500 0.437500
vt 0.869442 0.393679
vt 0.562500 0.656186
vt 0.781250 0.500000
vt 0.412706 0.450022
vt 0.968768 0.624844
vn 0.519900 -0.001500 -0.854300
vn -0.406400 -0.857200 -0.316400
vn -0.204200 0.969200 -0.137700
vn 0.686200 -0.371900 -0.625200
vn -0.275100 0.377600 0.884100
vn -0.902100 -0.203100 0.380800
vn 0.278100 0.771100 0.572800
vn 0.663600 -0.743500 -0.083200
vn -0.737400 -0.675300 -0.013300
vn -0.513400 -0.857400 0.035600
vn 0.646700 0.583200 0.491500
vn -0.908600 -0.325200 -0.262000
vn 0.061000 0.857000 0.511700
vn 0.303200 -0.716600 -0.628200
vn 0.902100 0.203100 -0.380800
vn 0.482100 -0.254700 -0.838300
vn -0.787600 -0.538800 -0.299000
vn -0.519900 -0.001500 -0.854300
vn 0.406400 -0.857200 -0.316400
vn 0.204200 0.969200 -0.137700
vn -0.686200 -0.371900 -0.625200
vn 0.275100 0.377600 0.884100
vn 0.902100 -0.203100 0.380800
vn -0.061000 0.857000 0.511700
vn -0.621900 -0.639000 -0.452700
vn 0.737400 -0.675300 -0.013300
vn 0.513400 -0.857400 0.035600
vn -0.646700 0.583200 0.491500
vn 0.908600 -0.325200 -0.262000
vn -0.303200 -0.716600 -0.628200
vn -0.902100 0.203100 -0.380800
vn -0.482100 -0.254700 -0.838300
vn 0.787600 -0.538800 -0.299000
vn 0.621900 -0.639000 -0.452700
vn -0.287200 -0.907300 0.307000
vn -0.023700 0.708400 0.705400
vn -0.278100 0.771100 0.572800
vn -0.663600 -0.743500 -0.083200
vn 0.287200 -0.907300 0.307000
vn 0.023700 0.708400 0.705400
usemtl red
s off
f 1/1/1 5/2/1 2/3/1
f 9/4/2 7/5/2 10/6/2
f 2/7/3 3/8/3 4/9/3
f 5/2/4 8/10/4 6/11/4
f 7/12/5 8/13/5 5/14/5
f 3/15/6 9/4/6 12/16/6
f 12/17/7 13/18/7 4/19/7
f 10/20/8 5/21/8 11/22/8
f 6/11/9 8/23/9 9/24/9
f 10/25/10 13/26/10 12/27/10
f 9/28/11 8/13/11 7/12/11
f 9/24/12 3/29/12 2/3/12
f 11/30/13 1/31/13 4/32/13
f 5/33/14 10/6/14 7/5/14
f 5/33/15 1/34/15 11/35/15
f 5/2/16 6/11/16 2/3/16
f 6/11/17 9/24/17 2/3/17
f 14/1/18 15/3/18 18/2/18
f 22/4/19 23/6/19 20/5/19
f 17/9/20 16/8/20 15/7/20
f 18/2/21 19/11/21 21/10/21
f 20/12/22 18/14/22 21/13/22
f 16/15/23 25/16/23 22/4/23
f 25/17/24 16/36/24 17/19/24
f 23/20/25 26/37/25 24/22/25
f 19/11/26 22/24/26 21/23/26
f 25/27/27 26/26/27 23/25/27
f 22/28/28 20/12/28 21/13/28
f 22/24/29 15/3/29 16/29/29
f 17/32/24 14/31/24 24/30/24
f 18/33/30 20/5/30 23/6/30
f 18/33/31 24/35/31 14/34/31
f 18/2/32 15/3/32 19/11/32
f 19/11/33 15/3/33 22/24/33
f 1/38/3 2/7/3 4/9/3
f 3/36/13 12/17/13 4/19/13
f 13/37/34 10/20/34 11/22/34
f 9/39/35 10/25/35 12/27/35
f 13/40/36 11/30/36 4/32/36
f 14/38/20 17/9/20 15/7/20
f 26/18/37 25/17/37 17/19/37
f 18/21/38 23/20/38 24/22/38
f 22/39/39 25/27/39 23/25/39
f 26/40/40 17/32/40 24/30/40
o TwinTail_TwinTailMesh
v 0.271541 -0.467788 0.241545
v 0.303565 -0.385294 0.160250
v 0.300297 -0.465038 0.067562
v 0.268261 -0.547454 0.148850
v 0.334827 -0.484651 0.251432
v 0.333259 -0.404837 0.170818
v 0.353112 -0.475497 0.077772
v 0.354679 -0.555310 0.158385
v 0.255421 -0.465463 0.328184
v 0.329084 -0.299922 0.165622
v 0.315609 -0.461762 -0.019595
v 0.241898 -0.626962 0.142935
v 0.196937 -0.444982 0.317346
v 0.277701 -0.278783 0.154782
v 0.259130 -0.442628 -0.030294
v 0.178223 -0.607841 0.132179
v 0.451171 -0.412306 0.249966
v 0.382569 -0.366140 0.190385
v 0.430081 -0.393051 0.100923
v 0.498682 -0.439217 0.160505
v 0.526585 0.149223 0.315864
v 0.422898 0.139724 0.270815
v 0.466906 0.150080 0.167206
v 0.570594 0.159579 0.212255
v 0.476066 0.585873 0.330862
v 0.383926 0.563465 0.291081
v 0.421398 0.571609 0.199689
v 0.513538 0.594016 0.239470
v 0.454340 0.820680 0.289792
v 0.416139 0.825746 0.274893
v 0.432381 0.831993 0.237245
v 0.470582 0.826927 0.252144
v 0.478837 0.907208 0.305594
v 0.459166 0.926657 0.299971
v 0.468831 0.936249 0.280755
v 0.487975 0.917253 0.285891
v -0.271541 -0.467788 0.241545
v -0.303565 -0.385294 0.160250
v -0.300297 -0.465038 0.067562
v -0.268261 -0.547454 0.148850
v -0.334827 -0.484651 0.251432
v -0.333259 -0.404837 0.170818
v -0.353112 -0.475497 0.077772
v -0.354679 -0.555310 0.158385
v -0.255421 -0.465463 0.328184
v -0.329084 -0.299922 0.165622
v -0.315609 -0.461762 -0.019595
v -0.241898 -0.626962 0.142935
v -0.196937 -0.444982 0.317346
v -0.277701 -0.278783 0.154782
v -0.259130 -0.442628 -0.030294
v -0.178223 -0.607841 0.132179
v -0.451171 -0.412306 0.249966
v -0.382569 -0.366140 0.190385
v -0.430081 -0.393051 0.100923
v -0.498682 -0.439217 0.160505
v -0.526585 0.149223 0.315864
v -0.422898 0.139724 0.270815
v -0.466906 0.150080 0.167206
v -0.570594 0.159579 0.212255
v -0.476066 0.585873 0.330862
v -0.383926 0.563465 0.291081
v -0.421398 0.571609 0.199689
v -0.513538 0.594016 0.239470
v -0.454340 0.820680 0.289792
v -0.416139 0.825746 0.274893
v -0.432381 0.831993 0.237245
v -0.470582 0.826927 0.252144
v -0.478837 0.907208 0.305594
v -0.459166 0.926657 0.299971
v -0.468831 0.936249 0.280755
v -0.487975 0.917253 0.285891
vt 0.125000 0.218750
vt 0.125000 0.187500
vt 0.187500 0.187500
vt 0.062500 0.218750
vt 0.062500 0.187500
vt 0.000000 0.218750
vt 0.000000 0.187500
vt 0.187500 0.218750
vt 0.250000 0.187500
vt 0.562500 0.750000
vt 0.531250 0.718750
vt 0.656250 0.718750
vt 0.250000 0.218750
vt 0.250000 0.281250
vt 0.187500 0.281250
vt 0.437500 0.843750
vt 0.437500 0.875000
vt 0.312500 0.875000
vt 0.625000 0.812500
vt 0.625000 0.750000
vt 0.656250 0.843750
vt 0.531250 0.843750
vt 0.562500 0.812500
vt 0.531250 0.875000
vt 0.656250 0.875000
vt 0.656250 1.000000
vt 0.781250 0.843750
vt 0.781250 0.875000
vt 0.250000 0.562500
vt 0.062500 0.281250
vt 0.000000 0.281250
vt 0.125000 0.281250
vt 0.187500 0.562500
vt 0.250000 0.750000
vt 0.062500 0.562500
vt 0.000000 0.562500
vt 0.125000 0.562500
vt 0.250000 0.875000
vt 0.187500 0.875000
vt 0.062500 0.750000
vt 0.125000 0.750000
vt 0.187500 0.750000
vt 0.250000 0.937500
vt 0.187500 0.937500
vt 0.000000 0.750000
vt 0.062500 0.875000
vt 0.125000 0.875000
vt 0.062500 1.000000
vt 0.062500 0.937500
vt 0.125000 0.937500
vt 0.000000 0.937500
vt 0.000000 0.875000
vt 0.125000 1.000000
vt 0.312500 0.843750
vt 0.531250 1.000000
vn 0.171200 0.657000 0.734200
vn 0.263100 0.794500 -0.547200
vn 0.013000 -0.710400 -0.703600
vn -0.290400 -0.720600 0.629600
vn 0.940000 -0.288200 0.182600
vn 0.541800 -0.681000 0.492600
vn -0.357300 -0.683100 0.636900
vn 0.946800 -0.317700 0.051000
vn 0.952700 -0.259700 0.157600
vn 0.953500 -0.290100 0.081200
vn -0.940400 0.295800 -0.167500
vn -0.081300 -0.680300 -0.728400
vn 0.353600 0.691500 -0.629900
vn 0.117700 0.664600 0.737900
vn 0.854900 -0.145700 0.497900
vn 0.525400 -0.263400 -0.809000
vn -0.427400 0.777700 -0.460900
vn -0.321400 0.532700 0.782900
vn 0.912800 0.095000 0.397200
vn 0.390400 0.085400 -0.916700
vn -0.917000 0.132900 -0.376200
vn -0.655900 -0.000500 0.754800
vn 0.899800 0.143500 0.412000
vn 0.387300 0.112300 -0.915100
vn -0.921100 -0.066400 -0.383600
vn -0.379700 -0.075600 0.922000
vn 0.917200 -0.281800 0.281700
vn 0.369400 0.117400 -0.921800
vn -0.924200 0.090600 -0.370900
vn -0.345200 0.130600 0.929400
vn 0.493800 0.652900 0.574300
vn 0.441900 0.209500 -0.872200
vn -0.850500 0.435800 -0.294600
vn -0.370000 -0.064500 0.926800
vn -0.171200 0.657000 0.734200
vn -0.588500 0.602500 -0.539100
vn 0.001300 -0.702000 -0.712200
vn 0.290400 -0.720600 0.629600
vn -0.940000 -0.288200 0.182600
vn -0.541800 -0.681000 0.492600
vn 0.357300 -0.683100 0.636900
vn -0.950100 -0.269700 0.156800
vn -0.952700 -0.259700 0.157600
vn -0.952400 -0.243400 0.183700
vn 0.940400 0.295800 -0.167500
vn 0.090200 -0.675500 -0.731800
vn -0.405600 0.663800 -0.628400
vn -0.117700 0.664600 0.737900
vn -0.913500 -0.166300 0.371400
vn -0.525400 -0.263400 -0.809000
vn 0.427400 0.777700 -0.460900
vn 0.321400 0.532700 0.782900
vn -0.918300 0.093000 0.384800
vn -0.390400 0.085400 -0.916700
vn 0.917000 0.132900 -0.376200
vn 0.387000 -0.114600 0.914900
vn -0.899800 0.143500 0.412000
vn -0.372200 0.106600 -0.922000
vn 0.921100 -0.066400 -0.383600
vn 0.379700 -0.075600 0.922000
vn -0.917200 -0.281800 0.281700
vn -0.374400 0.119100 -0.919600
vn 0.919700 0.093800 -0.381200
vn 0.345200 0.130600 0.929400
vn -0.492400 0.661500 0.565600
vn -0.441900 0.209500 -0.872200
vn 0.881000 0.408000 -0.239500
vn 0.349000 -0.083200 0.933400
vn 0.079500 0.709100 0.700600
vn 0.588500 0.602500 -0.539100
vn -0.001300 -0.702000 -0.712200
vn -0.137000 -0.802700 0.580400
vn 0.914900 -0.321500 0.243900
vn 0.426700 -0.674100 0.602900
vn -0.318500 -0.702900 0.636000
vn 0.950100 -0.269700 0.156800
vn 0.931100 -0.292100 0.218400
vn 0.952400 -0.243400 0.183700
vn -0.940900 0.295800 -0.165100
vn -0.090200 -0.675500 -0.731800
vn 0.405600 0.663800 -0.628400
vn 0.100400 0.674000 0.731900
vn 0.913500 -0.166300 0.371400
vn 0.500900 -0.610200 -0.613800
vn -0.502000 0.633900 -0.588500
vn -0.640300 0.539600 0.546700
vn 0.918300 0.093000 0.384800
vn 0.650800 -0.012600 -0.759100
vn -0.861700 0.118600 -0.493300
vn -0.387000 -0.114600 0.914900
vn 0.909700 0.151800 0.386500
vn 0.372200 0.106600 -0.922000
vn -0.915800 -0.068400 -0.395800
vn -0.391100 -0.079800 0.916900
vn 0.889900 -0.312600 0.332100
vn 0.374400 0.119100 -0.919600
vn -0.919700 0.093800 -0.381200
vn -0.415900 0.106800 0.903100
vn 0.492400 0.661500 0.565600
vn 0.380600 0.258500 -0.887900
vn -0.881000 0.408000 -0.239500
vn -0.349000 -0.083200 0.933400
vn -0.079500 0.709100 0.700600
vn -0.263100 0.794500 -0.547200
vn -0.013000 -0.710400 -0.703600
vn 0.137000 -0.802700 0.580400
vn -0.914900 -0.321500 0.243900
vn -0.426700 -0.674100 0.602900
vn 0.318500 -0.702900 0.636000
vn -0.946800 -0.317700 0.051000
vn -0.931100 -0.292100 0.218400
vn -0.953500 -0.290100 0.081200
vn 0.940900 0.295800 -0.165100
vn 0.081300 -0.680300 -0.728400
vn -0.353600 0.691500 -0.629900
vn -0.100400 0.674000 0.731900
vn -0.854900 -0.145700 0.497900
vn -0.500900 -0.610200 -0.613800
vn 0.502000 0.633900 -0.588500
vn 0.640300 0.539600 0.546700
vn -0.912800 0.095000 0.397200
vn -0.650800 -0.012600 -0.759100
vn 0.861700 0.118600 -0.493300
vn 0.655900 -0.000500 0.754800
vn -0.909700 0.151800 0.386500
vn -0.387300 0.112300 -0.915100
vn 0.915800 -0.068400 -0.395800
vn 0.391100 -0.079800 0.916900
vn -0.889900 -0.312600 0.332100
vn -0.369400 0.117400 -0.921800
vn 0.924200 0.090600 -0.370900
vn 0.415900 0.106800 0.903100
vn -0.493800 0.652900 0.574300
vn -0.380600 0.258500 -0.887900
vn 0.850500 0.435800 -0.294600
vn 0.370000 -0.064500 0.926800
usemtl red
s off
f 32/41/41 28/42/41 27/43/41
f 32/41/42 33/44/42 29/45/42
f 33/44/43 34/46/43 30/47/43
f 31/48/44 27/43/44 30/49/44
f 27/50/45 35/51/45 38/52/45
f 34/53/46 46/54/46 43/55/46
f 35/56/47 39/57/47 42/58/47
f 29/59/48 30/60/48 38/52/48
f 29/59/49 37/61/49 36/62/49
f 27/50/50 28/63/50 36/62/50
f 40/64/51 41/65/51 42/66/51
f 37/61/52 38/67/52 42/68/52
f 36/62/53 37/61/53 41/65/53
f 36/62/54 40/64/54 39/57/54
f 43/55/55 46/54/55 50/69/55
f 33/44/56 45/70/56 46/71/56
f 32/41/57 44/72/57 45/70/57
f 31/48/58 43/55/58 44/72/58
f 47/73/59 50/69/59 54/74/59
f 45/70/60 49/75/60 50/76/60
f 44/72/61 48/77/61 49/75/61
f 44/72/62 43/55/62 47/73/62
f 54/74/63 58/78/63 55/79/63
f 50/76/64 49/75/64 53/80/64
f 48/77/65 52/81/65 53/80/65
f 47/73/66 51/82/66 52/81/66
f 58/78/67 62/83/67 59/84/67
f 54/85/68 53/80/68 57/86/68
f 53/80/69 52/81/69 56/87/69
f 51/82/70 55/79/70 56/87/70
f 62/88/71 61/89/71 60/90/71
f 57/86/72 61/89/72 62/91/72
f 57/86/73 56/87/73 60/90/73
f 56/87/74 55/79/74 59/84/74
f 63/43/75 64/42/75 68/41/75
f 68/41/76 64/42/76 65/45/76
f 69/44/77 65/45/77 66/47/77
f 66/49/78 63/43/78 67/48/78
f 74/52/79 71/51/79 63/50/79
f 79/55/80 82/54/80 70/53/80
f 78/58/81 75/57/81 71/56/81
f 65/59/82 73/61/82 74/52/82
f 72/62/83 73/61/83 65/59/83
f 63/50/84 71/51/84 72/62/84
f 78/66/85 77/65/85 76/64/85
f 73/61/86 77/65/86 78/68/86
f 72/62/87 76/64/87 77/65/87
f 75/57/88 76/64/88 72/62/88
f 79/55/89 83/73/89 86/69/89
f 82/71/90 81/70/90 69/44/90
f 81/70/91 80/72/91 68/41/91
f 80/72/92 79/55/92 67/48/92
f 83/73/93 87/82/93 90/74/93
f 86/76/94 85/75/94 81/70/94
f 85/75/95 84/77/95 80/72/95
f 80/72/96 84/77/96 83/73/96
f 91/79/97 94/78/97 90/74/97
f 86/76/98 90/85/98 89/80/98
f 89/80/99 88/81/99 84/77/99
f 88/81/100 87/82/100 83/73/100
f 95/84/101 98/83/101 94/78/101
f 90/85/102 94/92/102 93/86/102
f 89/80/103 93/86/103 92/87/103
f 92/87/104 91/79/104 87/82/104
f 98/88/105 95/93/105 96/90/105
f 98/91/106 97/89/106 93/86/106
f 93/86/107 97/89/107 96/90/107
f 92/87/108 96/90/108 95/84/108
f 31/48/109 32/41/109 27/43/109
f 28/42/110 32/41/110 29/45/110
f 29/45/111 33/44/111 30/47/111
f 34/53/112 31/48/112 30/49/112
f 30/60/113 27/50/113 38/52/113
f 31/48/114 34/53/114 43/55/114
f 38/94/115 35/56/115 42/58/115
f 37/61/116 29/59/116 38/52/116
f 28/63/117 29/59/117 36/62/117
f 35/51/118 27/50/118 36/62/118
f 39/95/119 40/64/119 42/66/119
f 41/65/120 37/61/120 42/68/120
f 40/64/121 36/62/121 41/65/121
f 35/56/122 36/62/122 39/57/122
f 47/73/123 43/55/123 50/69/123
f 34/46/124 33/44/124 46/71/124
f 33/44/125 32/41/125 45/70/125
f 32/41/126 31/48/126 44/72/126
f 51/82/127 47/73/127 54/74/127
f 46/71/128 45/70/128 50/76/128
f 45/70/129 44/72/129 49/75/129
f 48/77/130 44/72/130 47/73/130
f 51/82/131 54/74/131 55/79/131
f 54/85/132 50/76/132 53/80/132
f 49/75/133 48/77/133 53/80/133
f 48/77/134 47/73/134 52/81/134
f 55/79/135 58/78/135 59/84/135
f 58/92/136 54/85/136 57/86/136
f 57/86/137 53/80/137 56/87/137
f 52/81/138 51/82/138 56/87/138
f 59/93/139 62/88/139 60/90/139
f 58/92/140 57/86/140 62/91/140
f 61/89/141 57/86/141 60/90/141
f 60/90/142 56/87/142 59/84/142
f 67/48/143 63/43/143 68/41/143
f 69/44/144 68/41/144 65/45/144
f 70/46/145 69/44/145 66/47/145
f 70/53/146 66/49/146 67/48/146
f 66/60/147 74/52/147 63/50/147
f 67/48/148 79/55/148 70/53/148
f 74/94/149 78/58/149 71/56/149
f 66/60/150 65/59/150 74/52/150
f 64/63/151 72/62/151 65/59/151
f 64/63/152 63/50/152 72/62/152
f 75/95/153 78/66/153 76/64/153
f 74/67/154 73/61/154 78/68/154
f 73/61/155 72/62/155 77/65/155
f 71/56/156 75/57/156 72/62/156
f 82/54/157 79/55/157 86/69/157
f 70/46/158 82/71/158 69/44/158
f 69/44/159 81/70/159 68/41/159
f 68/41/160 80/72/160 67/48/160
f 86/69/161 83/73/161 90/74/161
f 82/71/162 86/76/162 81/70/162
f 81/70/163 85/75/163 80/72/163
f 79/55/164 80/72/164 83/73/164
f 87/82/165 91/79/165 90/74/165
f 85/75/166 86/76/166 89/80/166
f 85/75/167 89/80/167 84/77/167
f 84/77/168 88/81/168 83/73/168
f 91/79/169 95/84/169 94/78/169
f 89/80/170 90/85/170 93/86/170
f 88/81/171 89/80/171 92/87/171
f 88/81/172 92/87/172 87/82/172
f 97/89/173 98/88/173 96/90/173
f 94/92/174 98/91/174 93/86/174
f 92/87/175 93/86/175 96/90/175
f 91/79/176 92/87/176 95/84/176
