# Blender v2.76 (sub 0) OBJ File: 'twintails_blue.blend'
# www.blender.org
mtllib twintails_blue.mtl
o TwinTail_TwinTailModel
v -0.222545 0.383607 0.181345
v -0.222615 0.391167 0.058082
v -0.151693 0.493571 0.064599
v -0.151677 0.485427 0.188078
v -0.272321 0.414153 0.177618
v -0.272136 0.434273 0.055778
v -0.204148 0.534803 0.073540
v -0.204129 0.513406 0.194683
v -0.339093 0.478709 0.212281
v -0.339766 0.493471 0.068206
v -0.274872 0.581654 0.086820
v -0.274329 0.549875 0.210329
v -0.353094 0.467185 0.225158
v -0.353020 0.456863 0.077207
v -0.452285 0.516155 0.074562
v -0.452362 0.526462 0.222040
v -0.261670 -0.101392 0.258905
v -0.260750 -0.120761 0.162440
v -0.345588 -0.123360 0.163183
v -0.346509 -0.103991 0.259649
v -0.224830 -0.623715 0.386698
v -0.225168 -0.625626 0.328124
v -0.280724 -0.613350 0.327774
v -0.280386 -0.611440 0.386349
v -0.219688 -0.957913 0.390737
v -0.225318 -0.885255 0.331100
v -0.283608 -0.828010 0.335598
v -0.277978 -0.900668 0.395234
v -0.235981 -1.170223 0.376274
v -0.244110 -1.058315 0.305626
v -0.313072 -0.972350 0.314248
v -0.304570 -1.083604 0.385228
v 0.222545 0.383607 0.181345
v 0.222615 0.391167 0.058082
v 0.151693 0.493571 0.064599
v 0.151677 0.485427 0.188078
v 0.272321 0.414153 0.177618
v 0.272136 0.434273 0.055778
v 0.204148 0.534803 0.073540
v 0.204129 0.513406 0.194683
v 0.339093 0.478709 0.212281
v 0.339766 0.493471 0.068206
v 0.274872 0.581654 0.086820
v 0.274329 0.549875 0.210329
v 0.353094 0.467185 0.225158
v 0.353020 0.456863 0.077207
v 0.452285 0.516155 0.074562
v 0.452362 0.526462 0.222040
v 0.261670 -0.101392 0.258905
v 0.260750 -0.120761 0.162440
v 0.345588 -0.123360 0.163183
v 0.346509 -0.103991 0.259649
v 0.224830 -0.623715 0.386698
v 0.225168 -0.625626 0.328124
v 0.280724 -0.613350 0.327774
v 0.280386 -0.611440 0.386349
v 0.219688 -0.957913 0.390737
v 0.225318 -0.885255 0.331100
v 0.283608 -0.828010 0.335598
v 0.277978 -0.900668 0.395234
v 0.235981 -1.170223 0.376274
v 0.244110 -1.058315 0.305626
v 0.313072 -0.972350 0.314248
v 0.304570 -1.083604 0.385228
vt 0.187500 0.187500
vt 0.125000 0.187500
vt 0.125000 0.156250
vt 0.187500 0.156250
vt 0.062500 0.187500
vt 0.062500 0.156250
vt 0.000000 0.187500
vt 0.000000 0.156250
vt 0.250000 0.187500
vt 0.250000 0.156250
vt 0.125000 0.093750
vt 0.062500 0.093750
vt 0.250000 0.218750
vt 0.187500 0.250000
vt 0.250000 0.281250
vt 0.187500 0.281250
vt 0.062500 0.218750
vt 0.000000 0.218750
vt 0.125000 0.250000
vt 0.250000 0.531250
vt 0.187500 0.531250
vt 0.062500 0.281250
vt 0.000000 0.281250
vt 0.125000 0.281250
vt 0.250000 0.750000
vt 0.187500 0.750000
vt 0.062500 0.531250
vt 0.000000 0.531250
vt 0.125000 0.531250
vt 0.250000 0.875000
vt 0.187500 0.875000
vt 0.062500 0.750000
vt 0.000000 0.750000
vt 0.125000 0.750000
vt 0.250000 0.937500
vt 0.187500 0.937500
vt 0.062500 0.875000
vt 0.000000 0.875000
vt 0.125000 0.875000
vt 0.062500 1.000000
vt 0.062500 0.937500
vt 0.125000 0.937500
vt 0.125000 1.000000
vt 0.000000 0.937500
vn -0.589700 -0.802500 -0.090900
vn 0.021500 0.104200 -0.994300
vn 0.558200 0.823700 0.099400
vn -0.028200 -0.098200 0.994800
vn 0.822000 -0.568300 -0.036500
vn 0.183300 -0.227800 0.956300
vn 0.114400 0.068800 0.991100
vn 0.527700 0.830300 0.179300
vn -0.024200 0.205600 -0.978300
vn -0.691800 -0.716100 -0.092700
vn 0.005700 0.060300 0.998200
vn -0.242100 0.967200 0.077100
vn -0.036200 0.099200 -0.994400
vn 0.868300 -0.495900 -0.009300
vn 0.019400 0.241700 0.970200
vn -0.986400 -0.163500 0.015900
vn -0.035000 -0.146900 -0.988500
vn 0.987500 0.156700 -0.015000
vn 0.049400 0.021300 0.998600
vn -0.991900 -0.126300 0.013600
vn -0.024500 -0.317200 -0.948000
vn 0.997600 0.068700 -0.005700
vn 0.031800 -0.065200 0.997400
vn -0.998600 0.002700 0.052000
vn -0.050100 -0.022400 -0.998500
vn 0.998900 0.007900 -0.045700
vn -0.639100 -0.445500 -0.627000
vn -0.947100 0.134300 0.291500
vn 0.053100 0.137800 -0.989000
vn 0.977400 -0.068300 -0.199900
vn 0.589700 -0.802500 -0.090900
vn -0.021500 0.104200 -0.994300
vn -0.558200 0.823700 0.099400
vn 0.028200 -0.098200 0.994800
vn -0.822000 -0.568300 -0.036500
vn -0.183300 -0.227800 0.956300
vn -0.114400 0.068800 0.991100
vn -0.527700 0.830300 0.179300
vn 0.024200 0.205600 -0.978300
vn 0.691800 -0.716100 -0.092700
vn -0.005700 0.060300 0.998200
vn 0.242100 0.967200 0.077100
vn 0.036200 0.099200 -0.994400
vn -0.868300 -0.495900 -0.009300
vn -0.019400 0.241700 0.970200
vn 0.986400 -0.163500 0.015900
vn 0.035000 -0.146900 -0.988500
vn -0.987500 0.156700 -0.015000
vn -0.049400 0.021300 0.998600
vn 0.991900 -0.126300 0.013600
vn 0.024500 -0.317200 -0.948000
vn -0.997600 0.068700 -0.005700
vn -0.031800 -0.065200 0.997400
vn 0.998600 0.002700 0.052000
vn 0.050100 -0.022400 -0.998500
vn -0.998900 0.007900 -0.045700
vn 0.639100 -0.445500 -0.627000
vn 0.947100 0.134300 0.291500
vn -0.053100 0.137800 -0.989000
vn -0.977400 -0.068300 -0.199900
usemtl Blue
s off
f 5/1/1 6/2/1 2/3/1 1/4/1
f 6/2/2 7/5/2 3/6/2 2/3/2
f 7/5/3 8/7/3 4/8/3 3/6/3
f 8/9/4 5/1/4 1/4/4 4/10/4
f 1/11/5 2/3/5 3/6/5 4/12/5
f 5/1/6 8/9/6 12/13/6 9/14/6
f 9/14/7 12/13/7 16/15/7 13/16/7
f 8/7/8 7/5/8 11/17/8 12/18/8
f 7/5/9 6/2/9 10/19/9 11/17/9
f 6/2/10 5/1/10 9/14/10 10/19/10
f 13/16/11 16/15/11 20/20/11 17/21/11
f 12/18/12 11/17/12 15/22/12 16/23/12
f 11/17/13 10/19/13 14/24/13 15/22/13
f 10/19/14 9/14/14 13/16/14 14/24/14
f 17/21/15 20/20/15 24/25/15 21/26/15
f 16/23/16 15/22/16 19/27/16 20/28/16
f 15/22/17 14/24/17 18/29/17 19/27/17
f 14/24/18 13/16/18 17/21/18 18/29/18
f 21/26/19 24/25/19 28/30/19 25/31/19
f 20/28/20 19/27/20 23/32/20 24/33/20
f 19/27/21 18/29/21 22/34/21 23/32/21
f 18/29/22 17/21/22 21/26/22 22/34/22
f 25/31/23 28/30/23 32/35/23 29/36/23
f 24/33/24 23/32/24 27/37/24 28/38/24
f 23/32/25 22/34/25 26/39/25 27/37/25
f 22/34/26 21/26/26 25/31/26 26/39/26
f 32/40/27 31/41/27 30/42/27 29/43/27
f 28/38/28 27/37/28 31/41/28 32/44/28
f 27/37/29 26/39/29 30/42/29 31/41/29
f 26/39/30 25/31/30 29/36/30 30/42/30
f 37/1/31 33/4/31 34/3/31 38/2/31
f 38/2/32 34/3/32 35/6/32 39/5/32
f 39/5/33 35/6/33 36/8/33 40/7/33
f 40/9/34 36/10/34 33/4/34 37/1/34
f 33/11/35 36/12/35 35/6/35 34/3/35
f 37/1/36 41/14/36 44/13/36 40/9/36
f 41/14/37 45/16/37 48/15/37 44/13/37
f 40/7/38 44/18/38 43/17/38 39/5/38
f 39/5/39 43/17/39 42/19/39 38/2/39
f 38/2/40 42/19/40 41/14/40 37/1/40
f 45/16/41 49/21/41 52/20/41 48/15/41
f 44/18/42 48/23/42 47/22/42 43/17/42
f 43/17/43 47/22/43 46/24/43 42/19/43
f 42/19/44 46/24/44 45/16/44 41/14/44
f 49/21/45 53/26/45 56/25/45 52/20/45
f 48/23/46 52/28/46 51/27/46 47/22/46
f 47/22/47 51/27/47 50/29/47 46/24/47
f 46/24/48 50/29/48 49/21/48 45/16/48
f 53/26/49 57/31/49 60/30/49 56/25/49
f 52/28/50 56/33/50 55/32/50 51/27/50
f 51/27/51 55/32/51 54/34/51 50/29/51
f 50/29/52 54/34/52 53/26/52 49/21/52
f 57/31/53 61/36/53 64/35/53 60/30/53
f 56/33/54 60/38/54 59/37/54 55/32/54
f 55/32/55 59/37/55 58/39/55 54/34/55
f 54/34/56 58/39/56 57/31/56 53/26/56
f 64/40/57 61/43/57 62/42/57 63/41/57
f 60/38/58 64/44/58 63/41/58 59/37/58
f 59/37/59 63/41/59 62/42/59 58/39/59
f 58/39/60 62/42/60 61/36/60 57/31/60
o Ribbon_RibbonModel
v -0.263331 0.516650 0.313085
v -0.318858 0.321607 0.166884
v -0.258354 0.306112 0.164575
v -0.202826 0.501155 0.310777
v -0.301760 0.420200 -0.046711
v -0.280618 0.504857 -0.060806
v -0.275936 0.513953 0.000851
v -0.297078 0.429296 0.014947
v -0.236573 0.413801 0.012638
v -0.215431 0.498459 -0.001457
v -0.241255 0.404705 -0.049019
v -0.220113 0.489362 -0.063114
v -0.265668 0.564718 -0.070773
v -0.260986 0.573815 -0.009116
v -0.200481 0.558320 -0.011424
v -0.205163 0.549224 -0.073081
v -0.361558 0.180753 -0.006843
v -0.356876 0.189849 0.054814
v -0.296371 0.174355 0.052505
v -0.301053 0.165258 -0.009152
v -0.332012 0.427947 -0.045556
v -0.310870 0.512604 -0.059651
v -0.306188 0.521701 0.002006
v -0.327330 0.437043 0.016101
v -0.295920 0.572466 -0.069618
v -0.291238 0.581562 -0.007961
v -0.391811 0.188500 -0.005689
v -0.387129 0.197597 0.055968
v -0.241550 0.624342 0.161149
v -0.248172 0.611475 0.073952
v -0.187667 0.595980 0.071643
v -0.181046 0.608845 0.158840
v -0.230338 0.669236 0.153673
v -0.214535 0.746164 0.051526
v -0.207914 0.759028 0.138723
v -0.169833 0.653741 0.151364
v -0.271803 0.632087 0.162302
v -0.278424 0.619222 0.075106
v -0.260591 0.676983 0.154827
v -0.267212 0.664118 0.067631
v -0.252854 0.602378 0.012295
v -0.192349 0.586884 0.009986
v -0.241642 0.647275 0.004820
v -0.181137 0.631780 0.002511
v -0.283107 0.610126 0.013449
v -0.271894 0.655022 0.005974
v -0.157414 0.588235 0.070488
v -0.150793 0.601097 0.157685
v -0.146202 0.633129 0.063014
v -0.139581 0.645994 0.150210
v -0.162097 0.579136 0.008832
v -0.150885 0.624033 0.001357
v -0.219126 0.714132 0.146198
v -0.158621 0.698637 0.143889
v -0.249378 0.721879 0.147352
v -0.256000 0.709015 0.060156
v -0.230430 0.692171 -0.002655
v -0.169925 0.676676 -0.004964
v -0.260682 0.699918 -0.001501
v -0.134990 0.678025 0.055539
v -0.128369 0.690890 0.142735
v -0.139672 0.668929 -0.006118
v -0.154030 0.730669 0.049218
v -0.147409 0.743533 0.136414
v -0.238166 0.766775 0.139877
v -0.244788 0.753911 0.052681
v -0.219217 0.737067 -0.010130
v -0.158712 0.721572 -0.012439
v -0.249470 0.744815 -0.008976
v -0.123778 0.722922 0.048064
v -0.117156 0.735786 0.135260
v -0.128460 0.713825 -0.013593
v -0.220974 0.687429 0.276987
v -0.198550 0.777221 0.262037
v -0.160469 0.671934 0.274678
v -0.209762 0.732325 0.269512
v -0.149257 0.716830 0.267203
v -0.240014 0.740072 0.270666
v -0.119005 0.709083 0.266049
v -0.138045 0.761726 0.259728
v -0.228802 0.784968 0.263191
v -0.107792 0.753979 0.258574
v -0.202246 0.723815 0.523615
v -0.179821 0.813607 0.508664
v -0.141741 0.708320 0.521306
v -0.191033 0.768711 0.516140
v -0.130529 0.753216 0.513831
v -0.119316 0.798112 0.506356
v -0.170457 0.831800 0.631978
v -0.181669 0.786904 0.639453
v -0.121164 0.771409 0.637145
v -0.109952 0.816305 0.629670
v 0.263331 0.516650 0.313085
v 0.318858 0.321607 0.166884
v 0.258354 0.306112 0.164575
v 0.202826 0.501155 0.310777
v 0.301760 0.420200 -0.046711
v 0.280618 0.504857 -0.060806
v 0.275936 0.513953 0.000851
v 0.297078 0.429296 0.014947
v 0.236573 0.413801 0.012638
v 0.215431 0.498459 -0.001457
v 0.241255 0.404705 -0.049019
v 0.220113 0.489362 -0.063114
v 0.265668 0.564718 -0.070773
v 0.260986 0.573815 -0.009116
v 0.200481 0.558320 -0.011424
v 0.205163 0.549224 -0.073081
v 0.361558 0.180753 -0.006843
v 0.356876 0.189849 0.054814
v 0.296371 0.174355 0.052505
v 0.301053 0.165258 -0.009152
v 0.332012 0.427947 -0.045556
v 0.310870 0.512604 -0.059651
v 0.306188 0.521701 0.002006
v 0.327330 0.437043 0.016101
v 0.295920 0.572466 -0.069618
v 0.291238 0.581562 -0.007961
v 0.391811 0.188500 -0.005689
v 0.387129 0.197597 0.055968
v 0.241550 0.624342 0.161149
v 0.248172 0.611475 0.073952
v 0.187667 0.595980 0.071643
v 0.181046 0.608845 0.158840
v 0.230338 0.669236 0.153673
v 0.214535 0.746164 0.051526
v 0.207914 0.759028 0.138723
v 0.169833 0.653741 0.151364
v 0.271803 0.632087 0.162302
v 0.278424 0.619222 0.075106
v 0.260591 0.676983 0.154827
v 0.267212 0.664118 0.067631
v 0.252854 0.602378 0.012295
v 0.192349 0.586884 0.009986
v 0.241642 0.647275 0.004820
v 0.181137 0.631780 0.002511
v 0.283107 0.610126 0.013449
v 0.271894 0.655022 0.005974
v 0.157414 0.588235 0.070488
v 0.150793 0.601097 0.157685
v 0.146202 0.633129 0.063014
v 0.139581 0.645994 0.150210
v 0.162097 0.579136 0.008832
v 0.150885 0.624033 0.001357
v 0.219126 0.714132 0.146198
v 0.158621 0.698637 0.143889
v 0.249378 0.721879 0.147352
v 0.256000 0.709015 0.060156
v 0.230430 0.692171 -0.002655
v 0.169925 0.676676 -0.004964
v 0.260682 0.699918 -0.001501
v 0.134990 0.678025 0.055539
v 0.128369 0.690890 0.142735
v 0.139672 0.668929 -0.006118
v 0.154030 0.730669 0.049218
v 0.147409 0.743533 0.136414
v 0.238166 0.766775 0.139877
v 0.244788 0.753911 0.052681
v 0.219217 0.737067 -0.010130
v 0.158712 0.721572 -0.012439
v 0.249470 0.744815 -0.008976
v 0.123778 0.722922 0.048064
v 0.117156 0.735786 0.135260
v 0.128460 0.713825 -0.013593
v 0.220974 0.687429 0.276987
v 0.198550 0.777221 0.262037
v 0.160469 0.671934 0.274678
v 0.209762 0.732325 0.269512
v 0.149257 0.716830 0.267203
v 0.240014 0.740072 0.270666
v 0.119005 0.709083 0.266049
v 0.138045 0.761726 0.259728
v 0.228802 0.784968 0.263191
v 0.107792 0.753979 0.258574
v 0.202246 0.723815 0.523615
v 0.179821 0.813607 0.508664
v 0.141741 0.708320 0.521306
v 0.191033 0.768711 0.516140
v 0.130529 0.753216 0.513831
v 0.119316 0.798112 0.506356
v 0.170457 0.831800 0.631978
v 0.181669 0.786904 0.639453
v 0.121164 0.771409 0.637145
v 0.109952 0.816305 0.629670
vt 0.531250 0.906250
vt 0.500000 0.906250
vt 0.500000 0.812500
vt 0.531250 0.812500
vt 0.843750 0.500000
vt 0.812500 0.500000
vt 0.812500 0.437500
vt 0.843750 0.437500
vt 0.406250 0.937500
vt 0.468750 0.937500
vt 0.468750 0.968750
vt 0.406250 0.968750
vt 0.375000 0.781250
vt 0.500000 0.781250
vt 0.375000 0.812500
vt 0.375000 0.906250
vt 0.843750 0.312500
vt 0.843750 0.281250
vt 0.875000 0.281250
vt 0.875000 0.312500
vt 0.656250 0.906250
vt 0.625000 0.937500
vt 0.562500 0.937500
vt 0.656250 0.812500
vt 0.781250 0.500000
vt 0.781250 0.437500
vt 0.937500 0.312500
vt 0.937500 0.437500
vt 0.906250 0.437500
vt 0.906250 0.312500
vt 0.875000 0.437500
vt 0.843750 0.562500
vt 0.812500 0.562500
vt 0.812500 0.531250
vt 0.843750 0.531250
vt 0.781250 0.531250
vt 0.750000 0.500000
vt 0.750000 0.531250
vt 0.812500 0.281250
vt 0.812500 0.312500
vt 0.750000 0.437500
vt 0.750000 0.312500
vt 0.781250 0.312500
vt 0.875000 0.500000
vt 0.906250 0.500000
vt 0.906250 0.531250
vt 0.875000 0.531250
vt 0.937500 0.500000
vt 0.937500 0.531250
vt 0.875000 0.562500
vt 0.593750 0.437500
vt 0.562500 0.437500
vt 0.562500 0.406250
vt 0.593750 0.406250
vt 0.343750 0.906250
vt 0.343750 0.812500
vt 0.593750 0.562500
vt 0.625000 0.562500
vt 0.625000 0.593750
vt 0.593750 0.593750
vt 0.656250 0.562500
vt 0.656250 0.593750
vt 0.593750 0.500000
vt 0.625000 0.500000
vt 0.625000 0.531250
vt 0.593750 0.531250
vt 0.437500 0.562500
vt 0.500000 0.562500
vt 0.500000 0.593750
vt 0.437500 0.593750
vt 0.656250 0.531250
vt 0.718750 0.531250
vt 0.718750 0.562500
vt 0.625000 0.406250
vt 0.625000 0.437500
vt 0.531250 0.562500
vt 0.531250 0.593750
vt 0.562500 0.531250
vt 0.562500 0.562500
vt 0.562500 0.500000
vt 0.531250 0.531250
vt 0.531250 0.500000
vt 0.562500 0.593750
vt 0.437500 0.531250
vt 0.500000 0.531250
vt 0.531250 0.437500
vt 0.531250 0.406250
vt 0.531250 0.375000
vt 0.562500 0.375000
vt 0.625000 0.625000
vt 0.593750 0.625000
vt 0.656250 0.625000
vt 0.500000 0.625000
vt 0.437500 0.625000
vt 0.531250 0.625000
vt 0.562500 0.625000
vt 0.562500 0.718750
vt 0.593750 0.718750
vt 0.593750 0.781250
vt 0.562500 0.781250
vt 0.593750 0.375000
vt 0.625000 0.375000
vt 0.718750 0.593750
vt 0.625000 0.718750
vt 0.625000 0.781250
vt 0.562500 0.656250
vt 0.593750 0.656250
vt 0.625000 0.656250
vt 0.531250 0.656250
vt 0.531250 0.718750
vt 0.531250 0.781250
vt 0.718750 0.625000
vt 0.781250 0.593750
vt 0.781250 0.625000
vt 0.343750 0.593750
vt 0.375000 0.593750
vt 0.375000 0.625000
vt 0.343750 0.625000
vt 0.781250 0.875000
vt 0.750000 0.875000
vt 0.750000 0.750000
vt 0.781250 0.750000
vt 0.812500 0.593750
vt 0.812500 0.625000
vt 0.718750 0.875000
vt 0.718750 0.750000
vt 0.906250 0.937500
vt 0.875000 0.937500
vt 0.875000 0.875000
vt 0.906250 0.875000
vt 0.375000 0.562500
vt 0.781250 0.562500
vt 0.843750 0.937500
vt 0.812500 0.937500
vt 0.812500 0.875000
vt 0.843750 0.875000
vt 0.875000 0.750000
vt 0.843750 0.750000
vt 0.843750 0.718750
vt 0.875000 0.718750
vt 0.718750 0.687500
vt 0.750000 0.687500
vt 0.906250 0.750000
vt 0.812500 0.750000
vt 0.812500 0.656250
vt 0.812500 0.687500
vt 0.781250 0.687500
vt 0.781250 0.656250
vt 0.843750 0.687500
vn -0.222100 -0.780200 -0.584800
vn -0.074900 -0.145500 -0.986500
vn 0.116200 0.574300 -0.810300
vn -0.116200 -0.574300 0.810300
vn 0.968100 -0.247900 -0.036900
vn -0.239200 -0.957800 0.159500
vn -0.968100 0.247900 0.036900
vn 0.074900 0.145500 0.986500
vn 0.239200 0.957800 -0.159500
vn 0.074900 0.145600 0.986500
vn 0.222100 0.780200 0.584800
vn 0.222100 -0.780200 -0.584800
vn 0.074900 -0.145500 -0.986500
vn -0.116200 0.574300 -0.810300
vn 0.116200 -0.574300 0.810300
vn -0.968100 -0.247900 -0.036900
vn 0.239200 -0.957800 0.159500
vn 0.968100 0.247900 0.036900
vn -0.074900 0.145500 0.986500
vn -0.239200 0.957800 -0.159500
vn -0.074900 0.145600 0.986500
vn -0.222100 0.780200 0.584800
usemtl Blue
s off
f 72/45/61 73/46/61 67/47/61 66/48/61
f 70/49/62 76/50/62 75/51/62 69/52/62
f 95/53/63 74/54/63 71/55/63 94/56/63
f 65/57/64 66/58/64 67/47/64 68/59/64
f 73/46/65 74/54/65 95/53/65 96/60/65 68/59/65 67/47/65
f 81/61/66 82/62/66 92/63/66 91/64/66
f 93/65/67 94/66/67 71/67/67 72/45/67 66/48/67 65/68/67
f 74/69/65 73/70/65 75/51/65 76/50/65
f 82/71/68 72/72/68 88/73/68 92/74/68
f 69/52/62 81/61/62 91/64/62 85/75/62
f 78/76/69 79/77/69 80/78/69 77/79/69
f 74/69/65 76/50/65 80/78/65 79/80/65
f 71/81/68 74/69/68 79/80/68 78/82/68
f 76/50/62 70/49/62 77/79/62 80/78/62
f 83/83/66 82/62/66 81/61/66 84/84/66
f 73/70/68 72/85/68 82/86/68 83/87/68
f 69/52/62 75/51/62 84/84/62 81/61/62
f 75/51/65 73/70/65 83/87/65 84/84/65
f 88/73/67 85/75/67 91/64/67 92/74/67
f 86/88/67 87/89/67 90/90/67 89/91/67
f 88/73/67 87/89/67 86/88/67 85/75/67
f 71/92/68 78/93/68 90/90/68 87/89/68
f 77/79/62 70/49/62 86/88/62 89/91/62
f 78/76/69 77/79/69 89/91/69 90/94/69
f 72/72/68 71/92/68 87/89/68 88/73/68
f 70/49/62 69/52/62 85/75/62 86/88/62
f 93/95/70 96/96/70 100/97/70 97/98/70
f 96/60/71 93/99/71 65/100/71 68/59/71
f 107/101/62 110/102/62 123/103/62 121/104/62
f 110/102/67 104/105/67 120/106/67 123/103/67
f 94/107/66 102/108/66 109/109/66 105/110/66
f 114/111/65 113/112/65 124/113/65 125/114/65
f 102/115/67 101/116/67 103/117/67 104/105/67
f 93/95/70 97/98/70 103/118/70 101/119/70
f 113/112/65 116/120/65 126/121/65 124/113/65
f 94/107/66 93/95/66 101/119/66 102/108/66
f 107/101/62 105/110/62 109/109/62 110/102/62
f 106/122/62 105/110/62 107/101/62 108/123/62
f 102/115/67 104/105/67 110/102/67 109/109/67
f 95/124/66 106/122/66 115/125/66 111/126/66
f 116/120/62 108/123/62 122/127/62 126/121/62
f 95/124/66 94/107/66 105/110/66 106/122/66
f 112/128/65 111/129/65 113/112/65 114/111/65
f 113/112/65 111/129/65 115/125/65 116/120/65
f 106/122/62 108/123/62 116/120/62 115/125/62
f 100/97/68 96/96/68 112/130/68 114/131/68
f 100/97/68 114/131/68 125/132/68 118/133/68
f 96/96/66 95/124/66 111/126/66 112/130/66
f 121/104/62 123/103/62 133/134/62 131/135/62
f 123/103/67 120/106/67 130/136/67 133/134/67
f 125/114/65 124/113/65 134/137/65 135/138/65
f 124/113/65 126/121/65 136/139/65 134/137/65
f 126/121/62 122/127/62 132/140/62 136/139/62
f 128/141/69 99/142/69 138/143/69 144/144/69
f 108/123/62 107/101/62 121/104/62 122/127/62
f 103/118/68 97/98/68 117/145/68 119/146/68
f 104/105/67 103/117/67 119/147/67 120/106/67
f 99/142/69 129/148/69 145/149/69 138/143/69
f 127/150/69 98/151/69 99/142/69 128/141/69
f 130/152/69 98/151/69 131/135/69 133/134/69
f 132/140/69 127/150/69 134/153/69 136/139/69
f 99/142/69 98/151/69 130/152/69 129/148/69
f 98/151/69 127/150/69 132/140/69 131/135/69
f 127/150/69 128/141/69 135/154/69 134/153/69
f 122/127/62 121/104/62 131/135/62 132/140/62
f 135/154/69 128/141/69 144/144/69 146/155/69
f 120/106/67 119/147/67 129/156/67 130/136/67
f 129/156/67 119/147/67 142/157/67 145/158/67
f 141/159/68 143/160/68 146/161/68 144/162/68
f 144/163/69 138/164/69 148/165/69 152/166/69
f 142/157/68 140/167/68 138/168/68 145/158/68
f 138/164/67 140/169/67 150/170/67 148/165/67
f 117/171/67 97/172/67 137/173/67 140/174/67
f 118/111/66 125/114/66 143/160/66 141/175/66
f 125/114/65 135/138/65 146/161/65 143/160/65
f 119/147/66 117/117/66 140/176/66 142/157/66
f 100/177/65 118/178/65 141/179/65 139/180/65
f 97/172/66 100/177/66 139/180/66 137/173/66
f 147/181/68 149/182/68 151/183/68 150/184/68
f 148/165/67 150/170/67 154/185/67 153/186/67
f 140/174/67 137/173/67 147/181/67 150/187/67
f 141/179/65 144/163/65 152/166/65 151/188/65
f 139/180/65 141/179/65 151/188/65 149/182/65
f 137/173/66 139/180/66 149/182/66 147/181/66
f 154/189/68 155/190/68 156/191/68 153/192/68
f 152/166/69 148/165/69 153/186/69 156/191/69
f 151/188/65 152/166/65 156/191/65 155/190/65
f 150/182/66 151/188/66 155/190/66 154/193/66
f 164/45/72 158/48/72 159/47/72 165/46/72
f 162/49/73 161/52/73 167/51/73 168/50/73
f 187/53/74 186/56/74 163/55/74 166/54/74
f 157/57/75 160/59/75 159/47/75 158/58/75
f 165/46/76 159/47/76 160/59/76 188/60/76 187/53/76 166/54/76
f 173/61/77 183/64/77 184/63/77 174/62/77
f 185/65/78 157/68/78 158/48/78 164/45/78 163/67/78 186/66/78
f 166/69/76 168/50/76 167/51/76 165/70/76
f 174/71/79 184/74/79 180/73/79 164/72/79
f 161/52/73 177/75/73 183/64/73 173/61/73
f 170/76/80 169/79/80 172/78/80 171/77/80
f 166/69/76 171/80/76 172/78/76 168/50/76
f 163/81/79 170/82/79 171/80/79 166/69/79
f 168/50/73 172/78/73 169/79/73 162/49/73
f 175/83/77 176/84/77 173/61/77 174/62/77
f 165/70/79 175/87/79 174/86/79 164/85/79
f 161/52/73 173/61/73 176/84/73 167/51/73
f 167/51/76 176/84/76 175/87/76 165/70/76
f 180/73/78 184/74/78 183/64/78 177/75/78
f 178/88/78 181/91/78 182/90/78 179/89/78
f 180/73/78 177/75/78 178/88/78 179/89/78
f 163/92/79 179/89/79 182/90/79 170/93/79
f 169/79/73 181/91/73 178/88/73 162/49/73
f 170/76/80 182/94/80 181/91/80 169/79/80
f 164/72/79 180/73/79 179/89/79 163/92/79
f 162/49/73 178/88/73 177/75/73 161/52/73
f 185/95/81 189/98/81 192/97/81 188/96/81
f 188/60/82 160/59/82 157/100/82 185/99/82
f 199/101/73 213/104/73 215/103/73 202/102/73
f 202/102/78 215/103/78 212/106/78 196/105/78
f 186/107/77 197/110/77 201/109/77 194/108/77
f 206/111/76 217/114/76 216/113/76 205/112/76
f 194/115/78 196/105/78 195/117/78 193/116/78
f 185/95/81 193/119/81 195/118/81 189/98/81
f 205/112/76 216/113/76 218/121/76 208/120/76
f 186/107/77 194/108/77 193/119/77 185/95/77
f 199/101/73 202/102/73 201/109/73 197/110/73
f 198/122/73 200/123/73 199/101/73 197/110/73
f 194/115/78 201/109/78 202/102/78 196/105/78
f 187/124/77 203/126/77 207/125/77 198/122/77
f 208/120/73 218/121/73 214/127/73 200/123/73
f 187/124/77 198/122/77 197/110/77 186/107/77
f 204/128/76 206/111/76 205/112/76 203/129/76
f 205/112/76 208/120/76 207/125/76 203/129/76
f 198/122/73 207/125/73 208/120/73 200/123/73
f 192/97/79 206/131/79 204/130/79 188/96/79
f 192/97/79 210/133/79 217/132/79 206/131/79
f 188/96/77 204/130/77 203/126/77 187/124/77
f 213/104/73 223/135/73 225/134/73 215/103/73
f 215/103/78 225/134/78 222/136/78 212/106/78
f 217/114/76 227/138/76 226/137/76 216/113/76
f 216/113/76 226/137/76 228/139/76 218/121/76
f 218/121/73 228/139/73 224/140/73 214/127/73
f 220/141/80 236/144/80 230/143/80 191/142/80
f 200/123/73 214/127/73 213/104/73 199/101/73
f 195/118/79 211/146/79 209/145/79 189/98/79
f 196/105/78 212/106/78 211/147/78 195/117/78
f 191/142/80 230/143/80 237/149/80 221/148/80
f 219/150/80 220/141/80 191/142/80 190/151/80
f 222/152/80 225/134/80 223/135/80 190/151/80
f 224/140/80 228/139/80 226/153/80 219/150/80
f 191/142/80 221/148/80 222/152/80 190/151/80
f 190/151/80 223/135/80 224/140/80 219/150/80
f 219/150/80 226/153/80 227/154/80 220/141/80
f 214/127/73 224/140/73 223/135/73 213/104/73
f 227/154/80 238/155/80 236/144/80 220/141/80
f 212/106/78 222/136/78 221/156/78 211/147/78
f 221/156/78 237/158/78 234/157/78 211/147/78
f 233/159/79 236/162/79 238/161/79 235/160/79
f 236/163/80 244/166/80 240/165/80 230/164/80
f 234/157/79 237/158/79 230/168/79 232/167/79
f 230/164/78 240/165/78 242/170/78 232/169/78
f 209/171/78 232/174/78 229/173/78 189/172/78
f 210/111/77 233/175/77 235/160/77 217/114/77
f 217/114/76 235/160/76 238/161/76 227/138/76
f 211/147/77 234/157/77 232/176/77 209/117/77
f 192/177/76 231/180/76 233/179/76 210/178/76
f 189/172/77 229/173/77 231/180/77 192/177/77
f 239/181/79 242/184/79 243/183/79 241/182/79
f 240/165/78 245/186/78 246/185/78 242/170/78
f 232/174/78 242/187/78 239/181/78 229/173/78
f 233/179/76 243/188/76 244/166/76 236/163/76
f 231/180/76 241/182/76 243/188/76 233/179/76
f 229/173/77 239/181/77 241/182/77 231/180/77
f 246/189/79 245/192/79 248/191/79 247/190/79
f 244/166/80 248/191/80 245/186/80 240/165/80
f 243/188/76 247/190/76 248/191/76 244/166/76
f 242/182/77 246/193/77 247/190/77 243/188/77
